REM DIRINDEX 1\2\3,1\2\4,1\2\5,1\2\6
REM DIRNAME folder01,folder02,folder03,folder04,folder05,folder06
TITLE ""
FILE "070 070.mp3" MP3
  TRACK 01 AUDIO
    TITLE "0:"
    INDEX 01 00:00:00
  TRACK 02 AUDIO
    TITLE "3:cjc157_2617"
    INDEX 01 00:00:11
  TRACK 03 AUDIO
    TITLE "0:"
    INDEX 01 00:01:46
  TRACK 04 AUDIO
    TITLE "4:cjc157_2618"
    INDEX 01 00:02:16
  TRACK 05 AUDIO
    TITLE "0:"
    INDEX 01 00:03:37
  TRACK 06 AUDIO
    TITLE "5:cjc157_2619"
    INDEX 01 00:04:07
  TRACK 07 AUDIO
    TITLE "0:"
    INDEX 01 00:05:67
  TRACK 08 AUDIO
    TITLE "3:cjc157_2620"
    INDEX 01 00:06:41
  TRACK 09 AUDIO
    TITLE "0:"
    INDEX 01 00:07:64
  TRACK 10 AUDIO
    TITLE "4:cjc157_2621"
    INDEX 01 00:08:32
  TRACK 11 AUDIO
    TITLE "0:"
    INDEX 01 00:09:18
  TRACK 12 AUDIO
    TITLE "5:cjc157_2622"
    INDEX 01 00:10:06
  TRACK 13 AUDIO
    TITLE "0:"
    INDEX 01 00:11:52
  TRACK 14 AUDIO
    TITLE "5:cjc157_2623"
    INDEX 01 00:12:20
  TRACK 15 AUDIO
    TITLE "0:"
    INDEX 01 00:13:73
  TRACK 16 AUDIO
    TITLE "3:cjc157_2624"
    INDEX 01 00:14:49
  TRACK 17 AUDIO
    TITLE "0:"
    INDEX 01 00:16:00
  TRACK 18 AUDIO
    TITLE "4:cjc157_2625"
    INDEX 01 00:16:42
  TRACK 19 AUDIO
    TITLE "0:"
    INDEX 01 00:17:53
  TRACK 20 AUDIO
    TITLE "5:cjc157_2626"
    INDEX 01 00:18:19
  TRACK 21 AUDIO
    TITLE "0:"
    INDEX 01 00:19:73
  TRACK 22 AUDIO
    TITLE "5:cjc157_2627"
    INDEX 01 00:20:39
  TRACK 23 AUDIO
    TITLE "0:"
    INDEX 01 00:22:15
  TRACK 24 AUDIO
    TITLE "3:cjc157_2628"
    INDEX 01 00:22:62
  TRACK 25 AUDIO
    TITLE "0:"
    INDEX 01 00:24:04
  TRACK 26 AUDIO
    TITLE "4:cjc157_2629"
    INDEX 01 00:24:49
  TRACK 27 AUDIO
    TITLE "0:"
    INDEX 01 00:25:52
  TRACK 28 AUDIO
    TITLE "5:cjc157_2630"
    INDEX 01 00:26:22
  TRACK 29 AUDIO
    TITLE "0:"
    INDEX 01 00:28:06
  TRACK 30 AUDIO
    TITLE "5:cjc157_2631"
    INDEX 01 00:28:53
  TRACK 31 AUDIO
    TITLE "0:"
    INDEX 01 00:31:08
  TRACK 32 AUDIO
    TITLE "3:cjc157_2632"
    INDEX 01 00:31:53
  TRACK 33 AUDIO
    TITLE "0:"
    INDEX 01 00:32:74
  TRACK 34 AUDIO
    TITLE "4:cjc157_2633"
    INDEX 01 00:33:46
  TRACK 35 AUDIO
    TITLE "0:"
    INDEX 01 00:34:63
  TRACK 36 AUDIO
    TITLE "5:cjc157_2634"
    INDEX 01 00:35:33
  TRACK 37 AUDIO
    TITLE "0:"
    INDEX 01 00:37:65
  TRACK 38 AUDIO
    TITLE "3:cjc157_2635"
    INDEX 01 00:38:35
  TRACK 39 AUDIO
    TITLE "0:"
    INDEX 01 00:39:56
  TRACK 40 AUDIO
    TITLE "4:cjc157_2636"
    INDEX 01 00:40:24
  TRACK 41 AUDIO
    TITLE "0:"
    INDEX 01 00:45:61
  TRACK 42 AUDIO
    TITLE "5:cjc157_2637"
    INDEX 01 00:46:27
  TRACK 43 AUDIO
    TITLE "0:"
    INDEX 01 00:50:46
  TRACK 44 AUDIO
    TITLE "5:cjc157_2638"
    INDEX 01 00:51:11
  TRACK 45 AUDIO
    TITLE "0:"
    INDEX 01 00:53:06
  TRACK 46 AUDIO
    TITLE "3:cjc157_2639"
    INDEX 01 00:53:51
  TRACK 47 AUDIO
    TITLE "0:"
    INDEX 01 00:54:62
  TRACK 48 AUDIO
    TITLE "4:cjc157_2640"
    INDEX 01 00:55:34
  TRACK 49 AUDIO
    TITLE "0:"
    INDEX 01 00:56:51
  TRACK 50 AUDIO
    TITLE "5:cjc157_2641"
    INDEX 01 00:57:19
  TRACK 51 AUDIO
    TITLE "0:"
    INDEX 01 00:59:32
  TRACK 52 AUDIO
    TITLE "3:cjc157_2642"
    INDEX 01 01:00:00
  TRACK 53 AUDIO
    TITLE "0:"
    INDEX 01 01:01:25
  TRACK 54 AUDIO
    TITLE "4:cjc157_2643"
    INDEX 01 01:01:74
  TRACK 55 AUDIO
    TITLE "0:"
    INDEX 01 01:03:14
  TRACK 56 AUDIO
    TITLE "5:cjc157_2644"
    INDEX 01 01:03:61
  TRACK 57 AUDIO
    TITLE "0:"
    INDEX 01 01:06:10
  TRACK 58 AUDIO
    TITLE "3:cjc157_2645"
    INDEX 01 01:06:57
  TRACK 59 AUDIO
    TITLE "0:"
    INDEX 01 01:07:70
  TRACK 60 AUDIO
    TITLE "4:cjc157_2646"
    INDEX 01 01:08:42
  TRACK 61 AUDIO
    TITLE "0:"
    INDEX 01 01:09:71
  TRACK 62 AUDIO
    TITLE "5:cjc157_2647"
    INDEX 01 01:10:47
  TRACK 63 AUDIO
    TITLE "0:"
    INDEX 01 01:12:38
  TRACK 64 AUDIO
    TITLE "5:cjc157_2648"
    INDEX 01 01:13:10
  TRACK 65 AUDIO
    TITLE "0:"
    INDEX 01 01:15:31
  TRACK 66 AUDIO
    TITLE "3:cjc157_2649"
    INDEX 01 01:15:74
  TRACK 67 AUDIO
    TITLE "0:"
    INDEX 01 01:17:33
  TRACK 68 AUDIO
    TITLE "4:cjc157_2650"
    INDEX 01 01:18:06
  TRACK 69 AUDIO
    TITLE "0:"
    INDEX 01 01:19:27
  TRACK 70 AUDIO
    TITLE "5:cjc157_2651"
    INDEX 01 01:19:72
  TRACK 71 AUDIO
    TITLE "0:"
    INDEX 01 01:22:21
  TRACK 72 AUDIO
    TITLE "5:cjc157_2652"
    INDEX 01 01:22:62
  TRACK 73 AUDIO
    TITLE "0:"
    INDEX 01 01:26:32
